<svg width="1440" height="409" viewBox="0 0 1440 409" fill="none" xmlns="http://www.w3.org/2000/svg">
<g clip-path="url(#clip0_385_17)">
<rect width="1440" height="409" fill="#53B5E1"/>
<rect x="2" y="177.508" width="1439" height="504.492" fill="#84D3E3"/>
<path d="M1480 180.451C1480 276.762 1322.1 275.6 1203.84 275.6C1085.57 275.6 624 344.259 624 247.948C624 151.637 965 6.0277 1080.5 6.0277C1226.5 -16.835 1480 84.1396 1480 180.451Z" fill="#84D3E3"/>
<path d="M993.5 227.095C993.5 327.709 899.704 409.273 784 409.273C668.296 409.273 320 395.622 320 295.008C320 194.394 667 167.807 784 105.285C912 78.8743 993.5 126.481 993.5 227.095Z" fill="#84D3E3"/>
<path d="M796.5 83.1847C851.678 83.1847 268.786 380.597 117.854 380.597C-142.419 405.385 -6.5564 261.212 -6.5564 130.563C-6.5564 -0.0873304 115.798 -106 266.73 -106C417.662 -106 811.075 -56.1203 796.5 83.1847Z" fill="#53B5E1"/>
</g>
<defs>
<clipPath id="clip0_385_17">
<rect width="1440" height="409" fill="white"/>
</clipPath>
</defs>
</svg>
